# AST/ASF file generated using VICON BodyLanguage
# -----------------------------------------------
:version 1.10
:name VICON
:units
  mass 1.0
  length 0.45
  angle deg
:documentation
   .ast/.asf automatically generated from VICON data using
   VICON BodyBuilder and BodyLanguage model FoxedUp or BRILLIANT.MOD
:root
   order TX TY TZ RX RY RZ
   axis XYZ
   position 0 0 0  
   orientation 0 0 0 
:bonedata
  begin
     id 1 
     name lhipjoint
     direction 0.734343 -0.627749 0.258209 
     length 2.5437 
     axis 0 0 0  XYZ
  end
  begin
     id 2 
     name lfemur
     direction 0.34202 -0.939693 0  
     length 6.7391  
     axis 0 0 20  XYZ
    dof rx ry rz
    limits (-160.0 20.0)
           (-70.0 70.0)
           (-60.0 70.0)
  end
  begin
     id 3 
     name ltibia
     direction 0.34202 -0.939693 0   
     length 7.21536   
     axis 0 0 20   XYZ
    dof rx
    limits (-10.0 170.0)
  end
  begin
     id 4 
     name lfoot
     direction 0.0489572 -0.134509 0.989702   
     length 1.61313   
     axis -90 7.62852e-016 20   XYZ
    dof rx rz
    limits (-45.0 90.0)
           (-70.0 20.0)
  end
  begin
     id 5 
     name ltoes
     direction 1.53451e-011 -4.21692e-011 1   
     length 0.823104   
     axis -90 7.62852e-016 20   XYZ
    dof rx
    limits (-90.0 20.0)
  end
  begin
     id 6 
     name rhipjoint
     direction -0.746398 -0.615468 0.253157   
     length 2.59446  
     axis 0 0 0  XYZ 
  end
  begin
     id 7 
     name rfemur
     direction -0.34202 -0.939693 0   
     length 6.7075   
     axis 0 0 -20   XYZ
    dof rx ry rz
    limits (-160.0 20.0)
           (-70.0 70.0)
           (-70.0 60.0)
  end
  begin
     id 8 
     name rtibia
     direction -0.34202 -0.939693 0   
     length 7.27262   
     axis 0 0 -20   XYZ
    dof rx
    limits (-10.0 170.0)
 end
 begin
     id 9 
     name rfoot
     direction -0.0455203 -0.125066 0.991104   
     length 1.91095  
     axis -90 -7.62852e-016 -20   XYZ
    dof rx rz
    limits (-45.0 90.0)
           (-20.0 70.0)
  end
  begin
     id 10 
     name rtoes
     direction -1.53601e-011 -4.21913e-011 1   
     length 0.969037   
     axis -90 -7.62852e-016 -20   XYZ
    dof rx
    limits (-90.0 20.0)
  end
  begin
     id 11 
     name lowerback
     direction 0.0181546 0.999122 -0.0377542   
     length 1.99916   
     axis 0 0 0   XYZ
    dof rx ry rz
    limits (-20.0 45.0)
           (-30.0 30.0)
           (-30.0 30.0)
  end
  begin
     id 12 
     name upperback
     direction 0.0203486 0.99589 0.0882534   
     length 1.951   
     axis 0 0 0   XYZ
    dof rx ry rz
    limits (-20.0 45.0)
           (-30.0 30.0)
           (-30.0 30.0)
  end
  begin
     id 13 
     name thorax
     direction 0.0131685 0.994241 0.106355   
     length 1.97461   
     axis 0 0 0   XYZ
    dof rx ry rz
    limits (-20.0 45.0)
           (-30.0 30.0)
           (-30.0 30.0)
  end
  begin
     id 14 
     name lowerneck
     direction -0.0281395 0.999325 0.023617   
     length 1.7959   
     axis 0 0 0   XYZ
    dof rx ry rz
    limits (-20.0 45.0)
           (-30.0 30.0)
           (-30.0 30.0)
  end
  begin
     id 15 
     name upperneck
     direction 0.0288721 0.991984 -0.123019   
     length 1.79917   
     axis 0 0 0   XYZ
    dof rx ry rz
    limits (-20.0 45.0)
           (-30.0 30.0)
           (-30.0 30.0)
  end
  begin
     id 16
     name head
     direction 0.0133797 0.998944 -0.0439492  
     length 1.80902  
     axis 0 0 0   XYZ
    dof rx ry rz
    limits (-20.0 45.0)
           (-30.0 30.0)
           (-30.0 30.0)
  end
  begin
     id 17 
     name lclavicle
     direction 0.919195 0.377107 0.113449  
     length 3.17815  
     axis 0 0 0   XYZ
    dof ry rz
    limits (-20.0 10.0)
           (0.0 20.0)
  end
  begin
     id 18 
     name lhumerus
     direction 1 -4.48959e-011 2.13129e-027   
     length 4.84137   
     axis 180 -30 -90   XYZ
    dof rx ry rz
    limits (-60.0 90.0)
           (-90.0 90.0)
           (-90.0 90.0)
  end
  begin
     id 19
     name lradius
     direction 1 -4.48957e-011 -6.30627e-028   
     length 3.2452   
     axis 180 -30 -90   XYZ
    dof rx
    limits (-10.0 170.0)
  end
  begin
     id 20
     name lwrist
     direction 1 -4.4901e-011 9.13299e-027   
     length 1.6226   
     axis -6.84618e-015 90 90   XYZ
    dof ry
    limits (-180.0 0.0)
 end
  begin
     id 21 
     name lhand
     direction 1 -4.48816e-011 1.82293e-026   
     length 0.521221   
     axis -1.16502e-014 90 90   XYZ
    dof rx rz
    limits (-90.0 90.0)
           (-45.0 45.0)
  end
  begin
     id 22 
     name lfingers
     direction 1 -4.49108e-011 3.65687e-026   
     length 0.420221   
     axis -2.33008e-014 90 90   XYZ
    dof rx
    limits (0.0 90.0)
  end
  begin
     id 23
     name lthumb
     direction 0.707107 -6.34943e-011 0.707107   
     length 0.603356   
     axis -90 45 5.69224e-014   XYZ
    dof rx rz
    limits (-45.0 45.0)
           (-45.0 45.0)
  end
  begin
     id 24 
     name rclavicle
     direction -0.90847 0.38596 0.160368   
     length 3.12973  
     axis 0 0 0   XYZ 
    dof ry rz
    limits (-10.0 20.0)
           (-20.0 0.0)
  end
  begin
     id 25 
     name rhumerus
     direction -1 -4.48974e-011 4.47268e-028  
     length 4.72284   
     axis 180 30 90   XYZ
    dof rx ry rz
    limits (-90.0 60.0)
           (-90.0 90.0)
           (-90.0 90.0)
  end
  begin
     id 26 
     name rradius
     direction -1 -4.48969e-011 3.43203e-027   
     length 3.23459   
     axis 180 30 90   XYZ
    dof rx
    limits (-10.0 170.0)
  end
  begin
     id 27 
     name rwrist
     direction -1 -4.48969e-011 9.12911e-027   
     length 1.6173   
     axis -6.84618e-015 -90 -90   XYZ
    dof ry
    limits (-180.0 0.0)
  end
  begin
     id 28
     name rhand
     direction -1 -4.49194e-011 1.83006e-026   
     length 0.307416   
     axis -1.16502e-014 -90 -90   XYZ
    dof rx rz
    limits (-90.0 90.0)
           (-45.0 45.0)
  end
  begin
     id 29
     name rfingers
     direction -1 -4.48423e-011 3.63103e-026   
     length 0.247847   
     axis -2.33008e-014 -90 -90   XYZ
    dof rx
    limits (0.0 90.0)
  end
  begin
     id 30
     name rthumb
     direction -0.707107 -6.34802e-011 0.707107   
     length 0.35586   
     axis -90 -45 -5.69224e-014   XYZ
    dof rx rz
    limits (-45.0 45.0)
           (-45.0 45.0)
  end
:hierarchy
  begin
    root lhipjoint rhipjoint lowerback
    lhipjoint lfemur
    lfemur ltibia
    ltibia lfoot
    lfoot ltoes
    rhipjoint rfemur
    rfemur rtibia
    rtibia rfoot
    rfoot rtoes
    lowerback upperback
    upperback thorax
    thorax lowerneck lclavicle rclavicle
    lowerneck upperneck
    upperneck head
    lclavicle lhumerus
    lhumerus lradius
    lradius lwrist
    lwrist lhand lthumb
    lhand lfingers
    rclavicle rhumerus
    rhumerus rradius
    rradius rwrist
    rwrist rhand rthumb
    rhand rfingers
  end

#!OML:ASF H:\Terrain\Patient Classification 1\Animal1\Tuesday\Animal1.ASF
:FULLY-SPECIFIED
:DEGREES
134
root 20.4016 13.4179 -12.4324 29.7635 -21.6087 1.28049
lowerback 31.5147 -2.50628 -1.61109
upperback -7.07974 -3.87615 0.999359
thorax -25.734 -1.05726 4.08048
lowerneck -16.3739 3.10928 -3.0525
upperneck 4.80227 4.17559 6.48915
head 3.86123 2.38637 2.82532
rclavicle 4.29375e-014 -3.26007e-014
rhumerus -27.9976 -13.4267 14.0394
rradius 26.2779
rwrist -29.1593
rhand -10.8183 7.13462
rfingers 7.12502
rthumb 15.1955 -22.2874
lclavicle 4.29375e-014 -3.26007e-014
lhumerus -20.4964 21.3703 -6.00212
lradius 39.5613
lwrist -24.5838
lhand 5.46325 62.0294
lfingers 7.12502
lthumb 30.8117 89.4666
rfemur -112.548 -16.7021 28.5684
rtibia 91.505
rfoot 42.2194 15.2999
rtoes 4.95337
lfemur -75.8831 -12.8304 -20.1013
ltibia 82.6334
lfoot -29.6649 24.063
ltoes -0.517548
135
root 20.4049 13.4196 -12.4403 29.7508 -21.8197 1.40225
lowerback 31.5019 -2.43119 -1.83847
upperback -6.9844 -3.87909 0.950511
thorax -25.5729 -1.03723 4.14219
lowerneck -16.6183 3.06113 -3.10341
upperneck 4.55629 4.12914 6.54693
head 3.82407 2.36709 2.84944
rclavicle 2.42517e-014 2.14687e-014
rhumerus -28.0407 -13.4644 13.8128
rradius 25.6787
rwrist -29.6368
rhand -12.1824 7.36246
rfingers 7.12502
rthumb 13.8812 -22.1543
lclavicle 2.42517e-014 2.14687e-014
lhumerus -20.26 21.07 -5.79383
lradius 38.556
lwrist -23.0949
lhand 4.43319 61.3968
lfingers 7.12502
lthumb 29.8292 89.0149
rfemur -112.639 -16.6476 28.5366
rtibia 91.4
rfoot 42.1809 15.813
rtoes 4.68848
lfemur -75.8869 -12.8861 -20.188
ltibia 82.5468
lfoot -30.171 23.8772
ltoes 0.980227
136
root 20.408 13.4232 -12.4483 29.5777 -22.0481 1.56716
lowerback 31.6153 -2.36253 -2.07946
upperback -6.8196 -3.89814 0.890904
thorax -25.3797 -1.0241 4.20825
lowerneck -17.1723 3.01003 -3.24477
upperneck 4.52791 4.09206 6.62731
head 3.89915 2.35825 2.9072
rclavicle -1.07344e-014 4.33351e-014
rhumerus -28.1172 -14.0528 13.7216
rradius 25.1003
rwrist -29.2213
rhand -13.1739 7.52402
rfingers 7.12502
rthumb 12.9255 -22.0557
lclavicle -1.07344e-014 4.33351e-014
lhumerus -20.2386 20.8423 -5.6642
lradius 37.6307
lwrist -22.0927
lhand 3.61501 61.1576
lfingers 7.12502
lthumb 29.0481 88.9131
rfemur -112.557 -16.6267 28.3848
rtibia 91.3033
rfoot 42.3029 15.8553
rtoes 4.98097
lfemur -75.7295 -12.9513 -20.3568
ltibia 82.4519
lfoot -30.5018 23.7277
ltoes 2.91385
137
root 20.4119 13.4276 -12.4546 29.4473 -22.0565 1.64418
lowerback 31.696 -2.37124 -2.0763
upperback -6.70406 -3.91207 0.861895
thorax -25.2568 -1.03956 4.17439
lowerneck -17.4284 2.97611 -3.18961
upperneck 4.42637 4.06063 6.42101
head 3.91373 2.33398 2.83603
rclavicle 9.54166e-014 -3.33958e-014
rhumerus -28.3188 -12.9941 13.3162
rradius 24.846
rwrist -30.0052
rhand -14.3761 7.72944
rfingers 7.12502
rthumb 11.7664 -21.9201
lclavicle 9.54166e-014 -3.33958e-014
lhumerus -20.0692 20.379 -5.44511
lradius 36.6226
lwrist -21.3937
lhand 3.222 60.9152
lfingers 7.12502
lthumb 28.6727 88.7348
rfemur -112.423 -16.728 28.3416
rtibia 91.2107
rfoot 42.1163 16.6369
rtoes 3.11938
lfemur -75.617 -13.1133 -20.3582
ltibia 82.359
lfoot -30.4012 23.8142
ltoes 3.27626
138
root 20.4177 13.431 -12.461 29.4608 -22.0359 1.73934
lowerback 31.6896 -2.38879 -2.04899
upperback -6.69328 -3.93022 0.835383
thorax -25.2402 -1.05459 4.13551
lowerneck -17.4111 2.94304 -3.18534
upperneck 4.20135 4.0402 6.23568
head 3.84577 2.31091 2.77158
rclavicle 7.03698e-014 -4.41302e-014
rhumerus -28.5655 -10.4862 12.665
rradius 24.841
rwrist -31.887
rhand -15.6487 7.98252
rfingers 7.12502
rthumb 10.5391 -21.7333
lclavicle 7.03698e-014 -4.41302e-014
lhumerus -19.6551 19.6994 -5.15881
lradius 35.3488
lwrist -20.6491
lhand 3.05294 60.6223
lfingers 7.12502
lthumb 28.5111 88.4691
rfemur -112.476 -16.8401 28.3546
rtibia 91.1101
rfoot 41.6622 18.0998
rtoes 0.310148
lfemur -75.6697 -13.3447 -20.3142
ltibia 82.2596
lfoot -30.3307 23.9346
ltoes 2.82158
139
root 20.4225 13.4342 -12.4742 29.5578 -22.0881 1.76786
lowerback 31.7116 -2.36298 -2.05939
upperback -6.69306 -3.90738 0.805359
thorax -25.2554 -1.04719 4.09522
lowerneck -17.5178 2.91984 -3.22066
upperneck 3.97889 4.02683 6.22997
head 3.79366 2.30305 2.77298
rclavicle -9.20373e-014 -4.01545e-014
rhumerus -28.8934 -7.77047 11.8913
rradius 25.0002
rwrist -33.9947
rhand -17.0267 8.36889
rfingers 7.12502
rthumb 9.20956 -21.41
lclavicle -9.20373e-014 -4.01545e-014
lhumerus -19.1827 18.9507 -4.88808
lradius 34.0903
lwrist -19.4932
lhand 3.19499 60.9077
lfingers 7.12502
lthumb 28.6469 88.7317
rfemur -112.59 -16.8151 28.3409
rtibia 90.9988
rfoot 41.8996 17.6247
rtoes 1.69052
lfemur -75.8241 -13.4239 -20.2474
ltibia 82.1799
lfoot -30.349 23.8907
ltoes 3.1651
140
root 20.4266 13.4456 -12.492 29.6506 -22.006 1.54025
lowerback 31.8664 -2.36349 -1.85061
upperback -6.66047 -3.80636 0.858843
thorax -25.3122 -1.03151 3.99788
lowerneck -17.6096 2.92738 -3.22296
upperneck 3.7807 4.04233 6.26897
head 3.74521 2.31266 2.78531
rclavicle 3.45885e-014 4.37326e-015
rhumerus -29.2001 -5.72214 11.1995
rradius 25.0542
rwrist -35.4068
rhand -18.2209 8.41398
rfingers 7.12502
rthumb 8.05713 -21.4124
lclavicle 3.45885e-014 4.37326e-015
lhumerus -18.9469 17.6898 -4.55921
lradius 33.2064
lwrist -17.4196
lhand 2.90338 60.626
lfingers 7.12502
lthumb 28.3682 88.4966
rfemur -112.476 -16.7621 28.5147
rtibia 90.8612
rfoot 42.7982 14.5094
rtoes 7.77095
lfemur -75.9182 -13.3719 -19.9511
ltibia 82.1211
lfoot -30.3866 23.7884
ltoes 3.84336
141
root 20.4305 13.4518 -12.5087 29.6605 -21.8329 1.41886
lowerback 32.0701 -2.42454 -1.64038
upperback -6.62479 -3.78427 0.923057
thorax -25.3841 -1.0433 3.95435
lowerneck -17.6152 2.95902 -3.20557
upperneck 3.47323 4.09869 6.18509
head 3.65015 2.33366 2.75535
rclavicle -7.95139e-015 1.19271e-014
rhumerus -29.4399 -4.53621 10.7192
rradius 24.8772
rwrist -35.6977
rhand -19.2884 8.41158
rfingers 7.12502
rthumb 7.02676 -21.4518
lclavicle -7.95139e-015 1.19271e-014
lhumerus -18.9168 16.4081 -4.2573
lradius 32.5306
lwrist -15.2336
lhand 1.83961 59.6428
lfingers 7.12502
lthumb 27.3512 87.6783
rfemur -112.352 -16.8435 28.6753
rtibia 90.7362
rfoot 43.1013 12.8819
rtoes 10.3648
lfemur -75.9792 -13.4215 -19.7252
ltibia 82.0694
lfoot -30.3614 23.6855
ltoes 4.32392
142
root 20.4348 13.4476 -12.5227 29.7984 -21.6587 1.39356
lowerback 32.102 -2.53238 -1.46456
upperback -6.59603 -3.84237 0.970251
thorax -25.3644 -1.08689 3.94179
lowerneck -17.6616 2.98513 -3.02229
upperneck 2.95453 4.13922 5.83692
head 3.50504 2.33306 2.6132
rclavicle -1.31198e-014 -9.14409e-015
rhumerus -29.576 -4.48785 10.5009
rradius 24.4504
rwrist -34.4635
rhand -20.1359 9.22133
rfingers 7.12502
rthumb 6.20863 -20.6677
lclavicle -1.31198e-014 -9.14409e-015
lhumerus -18.842 16.0542 -4.14702
lradius 31.6889
lwrist -14.0928
lhand 1.18859 59.3314
lfingers 7.12502
lthumb 26.7283 87.4635
rfemur -112.468 -16.9527 28.8307
rtibia 90.6178
rfoot 43.1427 12.9369
rtoes 10.3154
lfemur -76.2549 -13.522 -19.5521
ltibia 82.0428
lfoot -30.0936 23.6452
ltoes 4.19223
